<?xml version="1.0" encoding="utf-8"?>
<!-- Generator: Adobe Illustrator 15.0.0, SVG Export Plug-In . SVG Version: 6.00 Build 0)  -->
<!DOCTYPE svg PUBLIC "-//W3C//DTD SVG 1.1//EN" "http://www.w3.org/Graphics/SVG/1.1/DTD/svg11.dtd">
<svg version="1.1"
	 id="svg69" xmlns:dc="http://purl.org/dc/elements/1.1/" xmlns:rdf="http://www.w3.org/1999/02/22-rdf-syntax-ns#" xmlns:cc="http://creativecommons.org/ns#" xmlns:svg="http://www.w3.org/2000/svg"
	 xmlns="http://www.w3.org/2000/svg" xmlns:xlink="http://www.w3.org/1999/xlink" x="0px" y="0px" width="400px" height="400px"
	 viewBox="0 0 400 400" enable-background="new 0 0 400 400" xml:space="preserve">
<g id="g4335" transform="translate(0.4084951,0.126424)">
	<path id="path4" fill="#672290" d="M389.048,125.117c-2.185-6.579-4.721-13.124-7.576-19.597l-11.047,4.968
		C376.348,121.657,381.38,133.51,385.4,146l-39.754,13.037c12.762,60.583-10.268,123.222-61.997,161.156l29.821,41.438
		C388.57,306.56,417.928,212.107,389.048,125.117L389.048,125.117z"/>
	<path id="path6" fill="#EE2631" d="M334.301,358.689c5.524-4.13,10.907-8.587,16.125-13.329l-8.095-9.068
		c-8.694,9.139-18.308,17.63-28.835,25.35l-24.569-34.133c-53.143,30.973-119.283,28.223-171.012-9.711l-29.831,41.432
		C163.184,414.299,261.258,413.294,334.301,358.689z"/>
	<path id="path8-3" fill="#00ADEF" fill-opacity="0.9412" d="M97.294,378.315c5.599,4.027,11.462,7.816,17.542,11.359l6.043-10.572
		c-11.297-5.521-22.27-12.126-32.796-19.846l24.57-34.131c-45.606-41.441-63.454-105.781-43.695-167.159L20.7,142.135
		C-7.986,231.242,23.269,325.073,97.294,378.315L97.294,378.315z"/>
	<path id="path10-6" fill="#FCD205" d="M5.561,156.874c-2.064,6.618-3.823,13.418-5.283,20.349l11.83,2.534
		c1.712-12.55,4.545-25.124,8.565-37.614l39.754,13.037c24.957-56.584,80.066-93.598,144.008-93.598l0.006-51.216
		C111.613,10.366,32.856,69.364,5.561,156.874L5.561,156.874z"/>
	<path id="path12-7" fill="#78CA2A" d="M185.874,0.388C179,0.452,172.049,0.865,165.067,1.606l1.268,12.139
		c12.355-2.235,25.079-3.401,38.09-3.401v42.189c61.03,6.471,112.937,47.933,132.696,109.311l48.262-15.821
		C356.697,56.916,276.767-0.453,185.874,0.388z"/>
</g>
<path id="path8" fill="#FFFFFF" d="M345.644,260.675l20.67-3.436l10.088,3.809l1.845-4.885l-10.088-3.81l-13.24-16.239l-2.089,5.533
	l9.465,11.132l-0.1,0.265l-14.461,2.098L345.644,260.675z"/>
<path id="path10" fill="#FFFFFF" d="M312.053,317.188l6.063-6.563l18.008,16.637l3.525-3.815l-18.009-16.636l6.063-6.563
	l-3.224-2.979l-15.649,16.939L312.053,317.188z"/>
<path id="path12" fill="#FFFFFF" d="M268.127,380.556l17.907-6.087l-1.413-4.156l-12.948,4.401l-2.54-7.47l11.92-4.052l-1.412-4.156
	l-11.92,4.052l-2.525-7.431l12.842-4.364l-1.413-4.156l-17.799,6.05L268.127,380.556z"/>
<path id="path14" fill="#FFFFFF" d="M203.493,360.455l-5.222-0.403l-2.229,28.819l5.223,0.403L203.493,360.455z"/>
<path id="path16" fill="#FFFFFF" d="M143.177,356.212c2.116-6.128-0.6-11.689-6.313-14.591c-6.731-3.42-14.296-1.089-18.529,7.242
	c-4.225,8.316-1.716,15.782,5.079,19.234c6.128,3.112,12.206,1.214,15.422-3.342l-4.692-2.416c-2.126,2.72-5.456,3.165-8.538,1.599
	c-4.178-2.121-5.581-6.777-2.577-12.691c2.954-5.813,7.566-7.539,11.782-5.396c3.133,1.592,4.685,4.612,3.661,7.97L143.177,356.212z
	"/>
<path id="path18" fill="#FFFFFF" d="M77.782,325.359c7.53-5.531,8.591-13.386,4.104-19.494c-4.496-6.12-12.299-7.445-19.83-1.914
	c-7.519,5.524-8.599,13.375-4.104,19.495C62.44,329.555,70.251,330.89,77.782,325.359z M74.665,321.116
	c-5.301,3.894-10.134,3.347-12.925-0.452c-2.782-3.789-1.868-8.576,3.433-12.469c5.301-3.896,10.142-3.336,12.925,0.452
	C80.889,312.447,79.966,317.223,74.665,321.116z"/>
<path id="path20" fill="#FFFFFF" d="M49.016,255.346l1.602,4.779c4.6-1.646,6.554-6.693,4.599-12.528
	c-1.929-5.754-6.616-8.99-11.456-7.355c-3.935,1.319-5.259,4.875-4.911,9.775l0.243,3.388c0.242,3.208-0.027,5.473-2.15,6.197
	c-2.346,0.772-4.656-0.924-5.742-4.163c-1.042-3.104-0.457-5.979,2.353-7.144l-1.638-4.886c-5.379,2.027-7.084,7.109-4.944,13.492
	c2.203,6.57,6.76,9.286,11.595,7.68c4.747-1.606,5.6-6.254,5.195-10.702l-0.219-2.784c-0.219-2.429-0.085-5.183,2.212-5.924
	c2.065-0.677,4.197,0.663,5.237,3.768C51.983,251.896,51.26,254.313,49.016,255.346L49.016,255.346z"/>
<path id="path22" fill="#FFFFFF" d="M327.706,114.976l9.395,16.416l3.81-2.18l-6.792-11.871l6.848-3.918l6.252,10.927l3.81-2.179
	l-6.253-10.928l6.812-3.897l6.737,11.773l3.809-2.181l-9.337-16.317L327.706,114.976z"/>
<path id="path24" fill="#FFFFFF" d="M296.473,48.219l7.053,5.483L288.48,73.059l4.102,3.188l15.045-19.357l7.054,5.483l2.693-3.466
	l-18.208-14.153L296.473,48.219z"/>
<path id="path26" fill="#FFFFFF" d="M224.857,44.04l17.409,4.449l1.087-4.253l-12.335-3.152l6.069-23.752l-5.073-1.297
	L224.857,44.04z"/>
<path id="path28" fill="#FFFFFF" d="M159.724,55.902l18.5-3.931l-0.913-4.293l-13.378,2.842l-1.64-7.718l12.315-2.616l-0.913-4.293
	l-12.314,2.616l-1.631-7.676l13.268-2.819l-0.912-4.293l-18.389,3.907L159.724,55.902z"/>
<path id="path30" fill="#FFFFFF" d="M87.401,59.669l-4.727,3.265l24.801,18.001l5.319-3.674l-8.043-29.576l-4.737,3.272
	l6.751,22.988l-0.243,0.169L87.401,59.669z"/>
<path id="path32" fill="#FFFFFF" d="M51.063,107.694l2.586-4.325c-4.242-2.422-9.346-0.624-12.506,4.658
	c-3.115,5.208-2.524,10.874,1.868,13.484c3.561,2.131,7.123,0.824,10.618-2.628l2.415-2.388c2.28-2.271,4.173-3.54,6.106-2.4
	c2.112,1.281,2.327,4.139,0.573,7.071c-1.681,2.81-4.245,4.236-6.958,2.861l-2.645,4.42c5.039,2.768,10.007,0.756,13.464-5.021
	c3.557-5.947,2.655-11.174-1.71-13.802c-4.308-2.56-8.393-0.185-11.508,3.017l-1.973,1.979c-1.702,1.745-3.88,3.435-5.937,2.171
	c-1.858-1.127-2.228-3.618-0.546-6.428C46.513,107.685,48.818,106.663,51.063,107.694z"/>
<circle id="circle34" fill="#FFFFFF" cx="39.011" cy="183.518" r="4.505"/>
<circle id="circle36" fill="#FFFFFF" cx="375.886" cy="181.284" r="4.505"/>
<path id="path38" fill="#FF3E00" d="M274.989,121.071c-20.321-29.311-60.454-37.998-89.469-19.363l-50.958,32.739
	c-6.877,4.354-12.779,10.107-17.327,16.891c-4.548,6.783-7.644,14.448-9.089,22.505c-2.437,13.6-0.305,27.63,6.057,39.87
	c-4.361,6.669-7.332,14.161-8.734,22.023c-1.455,8.234-1.263,16.681,0.566,24.84c1.828,8.158,5.257,15.867,10.083,22.672
	c20.32,29.311,60.453,37.998,89.468,19.363l50.958-32.601c6.87-4.364,12.765-10.12,17.312-16.901
	c4.549-6.781,7.648-14.442,9.104-22.495c2.429-13.595,0.29-27.618-6.076-39.85c4.358-6.672,7.335-14.162,8.753-22.022
	c1.451-8.236,1.258-16.681-0.572-24.839c-1.828-8.159-5.254-15.868-10.075-22.674"/>
<path id="path40" fill="#FFFFFF" d="M181.478,284.835c-8.061,2.069-16.569,1.642-24.377-1.222
	c-7.808-2.865-14.54-8.029-19.286-14.797c-2.915-4.032-4.984-8.601-6.087-13.436c-1.102-4.835-1.216-9.839-0.333-14.718
	c0.289-1.587,0.696-3.151,1.217-4.679l0.962-2.914l2.631,1.943c6.047,4.365,12.798,7.688,19.966,9.824l1.964,0.563l-0.177,1.941
	c-0.189,2.662,0.568,5.307,2.14,7.475c1.432,2.037,3.461,3.59,5.813,4.451c2.351,0.86,4.913,0.988,7.341,0.365
	c1.11-0.295,2.169-0.753,3.141-1.359l51.125-32.27c1.256-0.781,2.332-1.814,3.159-3.031c0.829-1.217,1.392-2.592,1.65-4.037
	c0.262-1.472,0.223-2.98-0.114-4.438c-0.338-1.457-0.966-2.833-1.85-4.046c-1.432-2.036-3.461-3.588-5.813-4.449
	s-4.914-0.988-7.341-0.366c-1.112,0.291-2.171,0.75-3.142,1.359l-19.632,12.33c-3.211,2.013-6.713,3.532-10.386,4.504
	c-8.048,2.056-16.539,1.625-24.331-1.235c-7.793-2.861-14.512-8.013-19.254-14.764c-2.906-4.036-4.967-8.605-6.062-13.44
	c-1.096-4.835-1.204-9.837-0.319-14.714c0.867-4.786,2.735-9.341,5.483-13.373c2.749-4.032,6.318-7.452,10.479-10.043l51.281-32.269
	c3.192-2.01,6.674-3.529,10.327-4.505c8.058-2.07,16.563-1.644,24.369,1.221c7.805,2.864,14.533,8.03,19.273,14.797
	c2.918,4.031,4.991,8.599,6.098,13.434c1.105,4.835,1.223,9.84,0.342,14.72c-0.305,1.596-0.713,3.172-1.217,4.718l-0.981,2.913
	l-2.611-1.942c-6.06-4.399-12.831-7.748-20.026-9.902l-1.963-0.563l0.178-1.942c0.227-2.675-0.512-5.344-2.081-7.534
	c-1.441-2-3.464-3.521-5.8-4.356c-2.336-0.835-4.875-0.948-7.276-0.323c-1.11,0.292-2.17,0.75-3.142,1.359l-51.221,32.212
	c-1.251,0.782-2.324,1.812-3.152,3.025c-0.828,1.213-1.393,2.583-1.658,4.023c-0.257,1.476-0.215,2.987,0.122,4.446
	c0.337,1.46,0.963,2.839,1.841,4.058c1.426,2.018,3.438,3.559,5.77,4.419s4.873,0.998,7.286,0.397c1.109-0.3,2.167-0.757,3.141-1.36
	l19.633-12.309c3.209-2.036,6.72-3.563,10.406-4.524c8.055-2.075,16.561-1.654,24.367,1.208c7.805,2.861,14.533,8.024,19.275,14.791
	c2.916,4.031,4.988,8.598,6.094,13.434c1.106,4.834,1.223,9.839,0.346,14.719c-0.866,4.787-2.733,9.342-5.482,13.374
	c-2.748,4.032-6.316,7.452-10.479,10.042l-51.223,32.27C188.666,282.331,185.158,283.855,181.478,284.835z"/>
<g id="g44">
	<path id="path42" d="M155.332,92.435c3.912-1.028,11.604,0.089,17.448,2.737l-2.036,11.752c0,0-9.395-3.522-12.636-7.899
		c-0.918-1.24,1.195-3.767,1.195-3.767s-3.2,0.111-3.522,2.869c-0.321,2.757,1.399,5.324,15.191,10.065
		c13.792,4.743,12.691,10.776,24.066,18.334c12.101,8.043,21.675,12.507,35.671,19.318c13.995,6.811,33.131,9.1,41.924,8.48
		c8.531-0.602,15.667-2.665,20.249-4.028l4.581-19.816l2.105,0.371l0.742-4.211c12.634,2.228,23.41,14.984,20.811,29.722
		c-4.134,23.441-31.471,24.173-50.421,21.229c-46.321-8.17-127.72-57.482-124.277-77.008
		C147.723,93.216,151.42,93.462,155.332,92.435z"/>
</g>
<path id="path46" fill="#FF3E00" d="M172,109.438l3.528-20.002l119.644,41.727l2.105,0.371c1.415,12.093-4.58,19.817-4.58,19.817
	c-18.887,8.609-50.127,1.1-62.174-4.453C209.686,137.293,185.067,121.512,172,109.438z"/>
<path id="path50" fill="#FFFFFF" d="M302.61,163.54c17.034-4.474,18.715-16.548,16.712-21.605
	c4.149,7.245,0.633,20.186-18.134,25.115c-12.479,3.277-38.986,1.874-89.556-29.997C247.589,157.078,278.158,169.962,302.61,163.54z
	"/>
<path id="path48" d="M181.346,68.752c-6.129,16.287-6.747,25.948-6.747,25.948c7.122,8.854,41.958,33.452,74.5,39.191
	c22.107,3.899,35.979,5.26,47.992-1.305l1.299-7.369l4.457-25.266c4.827-27.372-30.658-47.742-44.344-50.156
	c-7.307-1.651-18.949-3.342-27.372-4.828C202.708,39.955,187.476,52.465,181.346,68.752z"/>
</svg>
